<?xml version="1.0" encoding="UTF-8" standalone="no"?>
<!DOCTYPE svg PUBLIC "-//W3C//DTD SVG 1.1//EN" "http://www.w3.org/Graphics/SVG/1.1/DTD/svg11.dtd">
<svg width="100%" height="100%" viewBox="0 0 508 186" version="1.1" xmlns="http://www.w3.org/2000/svg" xmlns:xlink="http://www.w3.org/1999/xlink" xml:space="preserve" xmlns:serif="http://www.serif.com/" style="fill-rule:evenodd;clip-rule:evenodd;stroke-linejoin:round;stroke-miterlimit:2;">
    <g transform="matrix(1,0,0,1,-787.444,-386.555)">
        <g id="Artboard3" transform="matrix(0.977858,0,0,1.00469,-166.899,134.052)">
            <rect x="975.952" y="251.324" width="518.759" height="185.085" style="fill:none;"/>
            <g transform="matrix(1.02264,0,0,1.30807,170.678,-284.478)">
                <path d="M1109.21,421.835L1239.76,446.278L1174.49,469.43L1280.1,478.274L1230.24,517.823L1124.62,508.979L1124.62,537.597L963.258,537.597L963.258,508.979L857.643,517.823L807.779,478.274L913.394,469.43L848.12,446.278L978.668,421.835L1043.94,444.987L1109.21,421.835Z" style="fill:rgb(173,232,180);"/>
                <path d="M1109.65,420.483C1109.25,420.408 1108.82,420.439 1108.44,420.573L1043.94,443.589C1043.94,443.589 979.298,420.806 979.298,420.806C978.99,420.696 978.641,420.67 978.311,420.732L847.826,445.367C847.318,445.462 846.945,445.791 846.894,446.186C846.843,446.582 847.126,446.959 847.599,447.127L909.125,468.897C909.125,468.897 807.654,477.41 807.654,477.41C807.221,477.446 806.853,477.666 806.705,477.977C806.557,478.288 806.653,478.636 806.954,478.875L856.814,518.428C857.061,518.624 857.414,518.722 857.769,518.692L962.074,509.984C962.074,509.984 962.061,537.597 962.061,537.597C962.061,538.101 962.597,538.509 963.258,538.509L1124.62,538.584C1125.34,538.584 1125.92,538.142 1125.92,537.597L1125.95,510.107C1125.95,510.107 1230.08,518.896 1230.08,518.896C1230.52,518.932 1230.96,518.812 1231.26,518.57L1281.18,479.058C1281.57,478.747 1281.7,478.293 1281.5,477.887C1281.31,477.481 1280.83,477.194 1280.27,477.147L1180.35,468.7C1180.35,468.7 1240.47,447.437 1240.47,447.437C1241.12,447.208 1241.5,446.693 1241.43,446.153C1241.37,445.613 1240.86,445.166 1240.16,445.036L1109.65,420.483ZM1109.4,423.303L1234.73,446.656C1234.73,446.656 1173.81,468.326 1173.81,468.326C1173.16,468.557 1172.79,469.089 1172.91,469.628C1173.03,470.167 1173.6,470.581 1174.31,470.641L1276.94,479.151C1276.94,479.151 1229.7,516.692 1229.7,516.692C1229.7,516.692 1124.77,507.976 1124.77,507.976C1124.39,507.944 1124.02,508.036 1123.74,508.227C1123.46,508.419 1123.3,508.692 1123.3,508.979L1123.33,536.611C1123.33,536.611 964.456,536.685 964.456,536.685C964.456,536.685 964.442,508.979 964.442,508.979C964.442,508.723 964.299,508.479 964.048,508.309C963.798,508.138 963.463,508.056 963.129,508.084L858.08,516.906C858.08,516.906 810.208,478.945 810.208,478.945C810.208,478.945 913.521,470.311 913.521,470.311C914.04,470.267 914.458,469.966 914.543,469.574C914.627,469.182 914.359,468.795 913.886,468.627L851.815,446.557C851.815,446.557 978.51,423.033 978.51,423.033C978.51,423.033 1043.24,446.136 1043.24,446.136C1043.68,446.294 1044.2,446.294 1044.64,446.136L1109.4,423.303Z" style="fill:rgb(102,104,140);"/>
            </g>
            <g transform="matrix(1.02264,0,0,0.995327,64.8876,-164.413)">
                <text x="917.516px" y="540.773px" style="font-family:'ArialRoundedMTBold', 'Arial Rounded MT Bold', sans-serif;font-size:84.119px;fill:rgb(238,240,146);stroke:rgb(70,75,149);stroke-width:4.27px;">REGISTER</text>
            </g>
        </g>
    </g>
</svg>
