<?xml version="1.0" encoding="UTF-8" standalone="no"?>
<!DOCTYPE svg PUBLIC "-//W3C//DTD SVG 1.1//EN" "http://www.w3.org/Graphics/SVG/1.1/DTD/svg11.dtd">
<svg width="100%" height="100%" viewBox="0 0 508 186" version="1.1" xmlns="http://www.w3.org/2000/svg" xmlns:xlink="http://www.w3.org/1999/xlink" xml:space="preserve" xmlns:serif="http://www.serif.com/" style="fill-rule:evenodd;clip-rule:evenodd;stroke-linejoin:round;stroke-miterlimit:2;">
    <g transform="matrix(1,0,0,1,-787.444,-386.555)">
        <g id="Artboard3" transform="matrix(0.977858,0,0,1.00469,-166.899,134.052)">
            <rect x="975.952" y="251.324" width="518.759" height="185.085" style="fill:none;"/>
            <clipPath id="_clip1">
                <rect x="975.952" y="251.324" width="518.759" height="185.085"/>
            </clipPath>
            <g clip-path="url(#_clip1)">
                <g transform="matrix(1.02264,0,0,0.995327,170.678,-133.425)">
                    <path d="M1051.71,423.746C1072.5,386.555 1114.07,386.555 1134.86,405.15C1155.64,423.746 1155.64,460.937 1134.86,498.127C1120.31,526.02 1082.89,553.913 1051.71,572.509C1020.53,553.913 983.115,526.02 968.565,498.127C947.778,460.937 947.778,423.746 968.565,405.15C989.351,386.555 1030.92,386.555 1051.71,423.746Z" style="fill:rgb(173,232,180);"/>
                    <path d="M1051.69,416.827C1041.78,402.327 1028.6,394.275 1015.15,391.276C997.162,387.269 978.664,392.299 966.769,403.143C956.765,412.223 951.38,425.383 950.667,440.785C949.857,458.294 955.081,478.772 966.567,499.227C972.815,511.204 983.206,523.206 995.521,534.493C1012.18,549.76 1032.37,563.735 1050.48,574.574C1051.24,575.026 1052.18,575.026 1052.94,574.574C1071.11,563.807 1091.37,549.911 1108.09,534.705C1120.49,523.437 1130.95,511.434 1137.27,499.434C1148.85,478.915 1154.17,458.346 1153.35,440.755C1152.62,425.198 1147.11,411.923 1136.98,402.778C1124.95,391.911 1106.31,386.889 1088.21,391.016C1074.74,394.09 1061.55,402.227 1051.69,416.827L1051.69,416.827ZM1048.52,425.531C1049.16,426.688 1050.38,427.404 1051.71,427.404C1053.04,427.404 1054.26,426.688 1054.9,425.531C1063.7,409.616 1076.51,400.838 1089.77,397.679C1105.63,393.899 1122.07,398.078 1132.73,407.523C1141.77,415.531 1146.6,427.303 1147.36,441.06C1148.28,457.728 1143.28,477.238 1132.46,496.789C1132.45,496.812 1132.44,496.835 1132.42,496.858C1126.44,508.425 1116.44,519.991 1104.6,530.886C1088.59,545.623 1069.22,559.111 1051.7,569.706C1034.14,559.181 1014.7,545.774 998.626,531.098C986.707,520.218 976.633,508.652 970.586,497.073C970.576,497.054 970.565,497.034 970.554,497.015C959.638,477.388 954.54,457.783 955.471,441.03C956.244,427.117 961.202,415.232 970.36,407.158C981.152,397.685 997.745,393.528 1013.72,397.419C1026.99,400.653 1039.79,409.526 1048.52,425.531Z" style="fill:rgb(102,104,140);"/>
                </g>
                <g transform="matrix(1.02264,0,0,0.995327,117.418,-164.413)">
                    <text x="917.516px" y="540.773px" style="font-family:'ArialRoundedMTBold', 'Arial Rounded MT Bold', sans-serif;font-size:84.119px;fill:rgb(238,240,146);stroke:rgb(70,75,149);stroke-width:4.27px;">DON<tspan x="1109.21px 1162.31px 1214.89px " y="540.773px 540.773px 540.773px ">ATE</tspan></text>
                </g>
            </g>
        </g>
    </g>
</svg>
