<?xml version="1.0" encoding="UTF-8" standalone="no"?>
<!DOCTYPE svg PUBLIC "-//W3C//DTD SVG 1.1//EN" "http://www.w3.org/Graphics/SVG/1.1/DTD/svg11.dtd">
<svg width="100%" height="100%" viewBox="0 0 838 323" version="1.1" xmlns="http://www.w3.org/2000/svg" xmlns:xlink="http://www.w3.org/1999/xlink" xml:space="preserve" xmlns:serif="http://www.serif.com/" style="fill-rule:evenodd;clip-rule:evenodd;stroke-linejoin:round;stroke-miterlimit:2;">
    <g id="Artboard1" transform="matrix(0.408936,0,0,0.210138,3.55271e-15,0)">
        <rect x="0" y="0" width="2048" height="1536" style="fill:none;"/>
        <g transform="matrix(3.22229,0,0,6.27069,-505.952,-1363.91)">
            <g transform="matrix(-0.197776,-0.475353,1.55145,-0.645499,162.579,881.92)">
                <path d="M736.089,154.844C673.077,154.844 621.919,229.314 621.919,321.041C621.919,412.768 673.077,487.238 736.089,487.238C717.185,448.459 701.838,387.338 701.838,321.041C701.838,254.744 717.185,193.623 736.089,154.844Z" style="fill:rgb(102,104,140);"/>
            </g>
            <g transform="matrix(-0.0866027,-0.728476,1.83459,-0.2181,-50.5095,931.588)">
                <path d="M736.089,154.844C673.077,154.844 621.919,229.314 621.919,321.041C621.919,412.768 673.077,487.238 736.089,487.238C717.185,448.459 701.838,387.338 701.838,321.041C701.838,254.744 717.185,193.623 736.089,154.844Z" style="fill:rgb(146,151,240);"/>
            </g>
            <g transform="matrix(0.479673,0,0,0.584822,185.18,127.448)">
                <path d="M342.849,390.677C342.849,401.519 340.057,411.261 334.473,419.902C328.889,428.544 320.717,435.31 309.956,440.201C299.195,445.092 286.437,447.538 271.682,447.538C253.992,447.538 239.4,444.196 227.905,437.511C219.753,432.701 213.13,426.281 208.035,418.252C202.94,410.222 200.392,402.416 200.392,394.835C200.392,390.433 201.921,386.662 204.978,383.524C208.035,380.385 211.927,378.816 216.656,378.816C220.487,378.816 223.727,380.039 226.377,382.484C229.026,384.93 231.289,388.558 233.163,393.367C235.446,399.074 237.912,403.843 240.561,407.674C243.211,411.506 246.94,414.665 251.75,417.151C256.56,419.637 262.878,420.881 270.704,420.881C281.464,420.881 290.208,418.374 296.933,413.36C303.658,408.347 307.021,402.09 307.021,394.59C307.021,388.639 305.207,383.809 301.58,380.1C297.952,376.391 293.265,373.558 287.517,371.601C281.77,369.645 274.087,367.566 264.467,365.365C251.587,362.349 240.806,358.823 232.124,354.788C223.442,350.753 216.554,345.25 211.459,338.28C206.364,331.31 203.816,322.648 203.816,312.295C203.816,302.431 206.506,293.668 211.887,286.005C217.267,278.342 225.052,272.452 235.242,268.335C245.432,264.218 257.416,262.16 271.193,262.16C282.198,262.16 291.716,263.525 299.745,266.256C307.775,268.987 314.44,272.615 319.738,277.139C325.037,281.664 328.909,286.412 331.355,291.385C333.801,296.358 335.023,301.208 335.023,305.937C335.023,310.257 333.495,314.15 330.438,317.614C327.381,321.079 323.57,322.811 319.005,322.811C314.847,322.811 311.688,321.772 309.528,319.693C307.368,317.614 305.024,314.211 302.497,309.483C299.236,302.717 295.323,297.438 290.758,293.647C286.193,289.857 278.856,287.961 268.747,287.961C259.372,287.961 251.811,290.02 246.064,294.136C240.317,298.253 237.443,303.206 237.443,308.994C237.443,312.581 238.422,315.678 240.378,318.287C242.335,320.896 245.025,323.137 248.449,325.012C251.872,326.887 255.337,328.355 258.842,329.415C262.348,330.474 268.136,332.023 276.206,334.061C286.315,336.425 295.466,339.034 303.658,341.887C311.851,344.74 318.821,348.205 324.568,352.281C330.316,356.357 334.799,361.513 338.019,367.75C341.239,373.986 342.849,381.628 342.849,390.677Z" style="fill:rgb(241,159,223);fill-rule:nonzero;stroke:rgb(102,104,140);stroke-width:6.06px;"/>
            </g>
            <g transform="matrix(1.05796,0,0,1.05796,-13.4407,-97.5011)">
                <path d="M368.299,446.613L369.203,444.409L357.062,413.84C356.315,412.082 355.942,410.805 355.942,410.01C355.942,409.167 356.159,408.384 356.592,407.661C357.026,406.939 357.622,406.361 358.381,405.927C359.14,405.494 359.929,405.277 360.748,405.277C362.169,405.277 363.241,405.728 363.964,406.632C364.686,407.535 365.325,408.83 365.879,410.516L374.225,434.797L382.138,412.214C382.765,410.383 383.331,408.95 383.837,407.914C384.342,406.879 384.878,406.18 385.445,405.819C386.011,405.457 386.812,405.277 387.847,405.277C388.594,405.277 389.311,405.475 389.997,405.873C390.684,406.27 391.214,406.806 391.587,407.481C391.96,408.155 392.147,408.866 392.147,409.613C392.051,410.07 391.894,410.721 391.677,411.564C391.461,412.407 391.196,413.262 390.882,414.129L378.019,447.805C376.911,450.768 375.827,453.092 374.767,454.779C373.707,456.465 372.304,457.76 370.558,458.663C368.811,459.566 366.457,460.018 363.494,460.018C360.603,460.018 358.435,459.705 356.99,459.078C355.545,458.452 354.822,457.308 354.822,455.646C354.822,454.514 355.165,453.64 355.852,453.026C356.538,452.412 357.556,452.105 358.905,452.105C359.435,452.105 359.953,452.177 360.459,452.322C361.085,452.466 361.627,452.538 362.085,452.538C363.217,452.538 364.108,452.37 364.758,452.033C365.409,451.695 365.993,451.111 366.511,450.28C367.029,449.449 367.625,448.227 368.299,446.613Z" style="fill:rgb(241,159,223);fill-rule:nonzero;stroke:rgb(102,104,140);stroke-width:2.9px;"/>
            </g>
            <g transform="matrix(1.05796,0,0,1.05796,-12.817,-97.3898)">
                <path d="M408.262,410.733L408.262,411.925C409.997,409.637 411.894,407.957 413.953,406.885C416.013,405.813 418.38,405.277 421.053,405.277C423.655,405.277 425.98,405.843 428.027,406.975C430.075,408.107 431.604,409.709 432.616,411.781C433.266,412.985 433.688,414.286 433.881,415.683C434.073,417.08 434.17,418.863 434.17,421.031L434.17,439.386C434.17,441.361 433.718,442.855 432.815,443.867C431.911,444.878 430.737,445.384 429.292,445.384C427.822,445.384 426.63,444.866 425.715,443.83C424.799,442.795 424.341,441.313 424.341,439.386L424.341,422.946C424.341,419.694 423.89,417.207 422.987,415.484C422.083,413.762 420.283,412.901 417.585,412.901C415.826,412.901 414.224,413.425 412.779,414.473C411.334,415.52 410.274,416.96 409.599,418.79C409.118,420.26 408.877,423.006 408.877,427.029L408.877,439.386C408.877,441.385 408.413,442.885 407.486,443.885C406.558,444.884 405.36,445.384 403.89,445.384C402.469,445.384 401.301,444.866 400.385,443.83C399.47,442.795 399.012,441.313 399.012,439.386L399.012,410.877C399.012,408.998 399.422,407.595 400.241,406.668C401.06,405.74 402.18,405.277 403.601,405.277C404.468,405.277 405.251,405.481 405.95,405.891C406.648,406.3 407.209,406.915 407.63,407.734C408.052,408.553 408.262,409.552 408.262,410.733Z" style="fill:rgb(241,159,223);fill-rule:nonzero;stroke:rgb(102,104,140);stroke-width:2.9px;"/>
            </g>
            <g transform="matrix(1.05796,0,0,1.05796,-12.817,-97.3898)">
                <path d="M471.531,427.751L452.236,427.751C452.26,429.992 452.712,431.967 453.591,433.677C454.47,435.387 455.639,436.676 457.096,437.543C458.553,438.411 460.161,438.844 461.92,438.844C463.1,438.844 464.178,438.706 465.153,438.429C466.129,438.152 467.075,437.718 467.99,437.128C468.905,436.538 469.748,435.905 470.519,435.231C471.29,434.556 472.29,433.641 473.518,432.485C474.024,432.051 474.747,431.834 475.686,431.834C476.698,431.834 477.517,432.111 478.143,432.665C478.77,433.219 479.083,434.002 479.083,435.014C479.083,435.905 478.733,436.947 478.035,438.14C477.336,439.332 476.282,440.476 474.873,441.572C473.464,442.668 471.694,443.578 469.562,444.3C467.43,445.023 464.979,445.384 462.209,445.384C455.873,445.384 450.947,443.578 447.43,439.964C443.913,436.351 442.155,431.449 442.155,425.258C442.155,422.343 442.589,419.64 443.456,417.146C444.323,414.653 445.588,412.515 447.25,410.733C448.912,408.95 450.959,407.583 453.392,406.632C455.825,405.68 458.523,405.204 461.486,405.204C465.34,405.204 468.646,406.017 471.404,407.643C474.163,409.269 476.228,411.371 477.601,413.949C478.974,416.526 479.661,419.152 479.661,421.826C479.661,424.307 478.95,425.915 477.529,426.649C476.108,427.384 474.108,427.751 471.531,427.751ZM452.236,422.151L470.122,422.151C469.881,418.778 468.972,416.255 467.394,414.581C465.816,412.907 463.738,412.07 461.161,412.07C458.704,412.07 456.686,412.919 455.109,414.617C453.531,416.315 452.573,418.827 452.236,422.151Z" style="fill:rgb(241,159,223);fill-rule:nonzero;stroke:rgb(102,104,140);stroke-width:2.9px;"/>
            </g>
            <g transform="matrix(1.05796,0,0,1.05796,-14.9333,-97.5011)">
                <path d="M497.763,431.148L497.763,439.386C497.763,441.385 497.294,442.885 496.354,443.885C495.415,444.884 494.222,445.384 492.777,445.384C491.356,445.384 490.188,444.878 489.272,443.867C488.357,442.855 487.899,441.361 487.899,439.386L487.899,411.925C487.899,407.493 489.501,405.277 492.705,405.277C494.343,405.277 495.523,405.795 496.246,406.83C496.968,407.866 497.366,409.396 497.438,411.419C498.619,409.396 499.829,407.866 501.07,406.83C502.31,405.795 503.966,405.277 506.038,405.277C508.109,405.277 510.121,405.795 512.072,406.83C514.023,407.866 514.999,409.239 514.999,410.95C514.999,412.154 514.583,413.148 513.752,413.931C512.921,414.713 512.024,415.105 511.06,415.105C510.699,415.105 509.826,414.882 508.441,414.436C507.056,413.991 505.833,413.768 504.773,413.768C503.328,413.768 502.147,414.147 501.232,414.906C500.317,415.665 499.606,416.791 499.1,418.285C498.594,419.778 498.245,421.555 498.052,423.614C497.86,425.674 497.763,428.185 497.763,431.148Z" style="fill:rgb(241,159,223);fill-rule:nonzero;stroke:rgb(102,104,140);stroke-width:2.9px;"/>
            </g>
            <g transform="matrix(1.05796,0,0,1.05796,-25.3367,-40.4434)">
                <path d="M557.352,265.217L604.675,265.217C616.985,265.217 627.542,266.358 636.346,268.641C645.15,270.923 653.139,275.203 660.313,281.48C678.981,297.458 688.315,321.752 688.315,354.36C688.315,365.121 687.378,374.944 685.503,383.83C683.628,392.715 680.734,400.725 676.821,407.858C672.908,414.991 667.894,421.37 661.78,426.995C656.971,431.315 651.712,434.78 646.006,437.389C640.3,439.997 634.165,441.831 627.603,442.891C621.04,443.951 613.642,444.481 605.409,444.481L558.086,444.481C551.483,444.481 546.51,443.482 543.168,441.485C539.825,439.488 537.645,436.675 536.626,433.048C535.607,429.42 535.097,424.712 535.097,418.924L535.097,287.472C535.097,279.646 536.85,273.981 540.355,270.475C543.861,266.97 549.526,265.217 557.352,265.217ZM571.415,293.953L571.415,415.623L598.928,415.623C604.96,415.623 609.689,415.46 613.112,415.133C616.536,414.807 620.082,413.992 623.751,412.688C627.419,411.383 630.599,409.549 633.289,407.185C645.435,396.914 651.509,379.224 651.509,354.115C651.509,336.425 648.839,323.178 643.499,314.374C638.16,305.57 631.577,299.965 623.751,297.56C615.925,295.155 606.469,293.953 595.382,293.953L571.415,293.953Z" style="fill:rgb(143,255,155);fill-rule:nonzero;stroke:rgb(102,104,140);stroke-width:7px;"/>
            </g>
        </g>
    </g>
</svg>
